<svg xmlns="http://www.w3.org/2000/svg" width="138" height="30" fill="none" xmlns:v="https://vecta.io/nano"><path d="M.369 0v9.35H1.98V1.611h19.361v17.097a9.68 9.68 0 0 1-2.836 6.846c-.899.899-1.966 1.612-3.141 2.099s-2.434.737-3.705.737-2.53-.251-3.705-.737-2.242-1.2-3.141-2.099a9.68 9.68 0 0 1-2.836-6.846v-1.34H8.05v1.34a3.61 3.61 0 0 0 3.608 3.608 3.61 3.61 0 0 0 3.608-3.608V7.684H8.051V9.35h5.552v9.358c0 .515-.205 1.009-.569 1.374s-.858.569-1.374.569-1.009-.205-1.374-.569-.569-.858-.569-1.374v-3.007H1.979.368v3.007A11.29 11.29 0 0 0 11.66 30a11.29 11.29 0 0 0 11.292-11.292V0H.369z" fill="#231d4f"/><path d="M11.662 23.704a5 5 0 0 1-3.533-1.464c-.937-.937-1.464-2.207-1.466-3.532H5a6.66 6.66 0 0 0 6.661 6.661 6.66 6.66 0 0 0 6.661-6.661V4.629H3.056v4.719h1.664V6.293h11.937v12.413a5 5 0 0 1-4.994 4.998z" fill="#bb6bd9"/><path d="M40.736 22.993c-.579.84-1.279 1.4-2.1 1.68-.803.261-1.689.317-2.66.168a14.92 14.92 0 0 1-3.024-.756l.924-3.276a9.43 9.43 0 0 0 1.764.532c.597.093 1.12.103 1.568.028.653-.093 1.055-.523 1.204-1.288s.224-1.783.224-3.052V5.185h3.276v11.844c0 1.344-.084 2.511-.252 3.5s-.476 1.811-.924 2.464zm8.019 1.932c-1.419-.075-2.492-.476-3.22-1.204-.728-.747-1.092-1.773-1.092-3.08 0-.952.243-1.764.728-2.436.485-.691 1.129-1.232 1.932-1.624s1.689-.635 2.66-.728c.989-.093 1.988-.028 2.996.196v-.868c0-.597-.243-1.027-.728-1.288s-1.083-.383-1.792-.364a6.58 6.58 0 0 0-2.1.42c-.691.243-1.251.597-1.68 1.064l-1.876-2.044a7.69 7.69 0 0 1 2.52-1.624c.971-.392 1.969-.616 2.996-.672 1.045-.056 2.025.065 2.94.364.933.299 1.699.784 2.296 1.456.467.523.728 1.213.784 2.072l.084 2.828v7.392h-3.416v-1.288c-.579.541-1.223.924-1.932 1.148a6.85 6.85 0 0 1-2.1.28zm3.92-4.088v-2.408c-1.941-.149-3.295-.028-4.06.364-.747.392-1.12.999-1.12 1.82 0 .523.177.905.532 1.148.373.224.831.336 1.372.336.56-.019 1.129-.131 1.708-.336a5.05 5.05 0 0 0 1.568-.924zm9.598 3.696c-.821-.373-1.493-.915-2.016-1.624-.523-.728-.915-1.559-1.176-2.492a11.41 11.41 0 0 1-.364-2.884c0-1.288.233-2.455.7-3.5s1.148-1.876 2.044-2.492c.915-.635 2.035-.952 3.36-.952.429 0 .924.047 1.484.14.579.093 1.045.271 1.4.532V5.185h3.36v19.6h-3.36v-1.12c-.317.373-.803.672-1.456.896a6.87 6.87 0 0 1-2.072.308c-.709.019-1.344-.093-1.904-.336zm5.432-3.668v-6.44c-.971-.392-1.885-.523-2.744-.392-.84.131-1.531.495-2.072 1.092-.523.579-.784 1.381-.784 2.408 0 1.213.261 2.175.784 2.884.523.691 1.204 1.092 2.044 1.204.859.093 1.783-.159 2.772-.756zm28.916-10.08l-4.76 14h-4.088l-2.94-9.436-2.912 9.436h-4.088l-4.788-14h3.78l3.024 10.304 3.248-10.304h3.5l3.248 10.276 2.996-10.276h3.78zm5.154 14.14c-1.419-.075-2.492-.476-3.22-1.204-.728-.747-1.092-1.773-1.092-3.08 0-.952.243-1.764.728-2.436.485-.691 1.129-1.232 1.932-1.624s1.689-.635 2.66-.728c.989-.093 1.988-.028 2.996.196v-.868c0-.597-.243-1.027-.728-1.288s-1.083-.383-1.792-.364a6.58 6.58 0 0 0-2.1.42c-.691.243-1.251.597-1.68 1.064l-1.876-2.044a7.69 7.69 0 0 1 2.52-1.624c.971-.392 1.969-.616 2.996-.672 1.045-.056 2.025.065 2.94.364.933.299 1.699.784 2.296 1.456.467.523.728 1.213.784 2.072l.084 2.828v7.392h-3.416v-1.288c-.579.541-1.223.924-1.932 1.148a6.85 6.85 0 0 1-2.1.28zm3.92-4.088v-2.408c-1.941-.149-3.295-.028-4.06.364-.747.392-1.12.999-1.12 1.82 0 .523.177.905.532 1.148.373.224.831.336 1.372.336.56-.019 1.129-.131 1.708-.336a5.05 5.05 0 0 0 1.568-.924zm9.681 3.948h-3.36v-19.6h3.36v19.6zm4.837-15.652c-.579 0-1.064-.196-1.456-.588s-.588-.877-.588-1.456c0-.56.196-1.036.588-1.428s.877-.588 1.456-.588c.56 0 1.036.196 1.428.588s.588.868.588 1.428c0 .579-.196 1.064-.588 1.456s-.868.588-1.428.588zm1.54 15.652h-3.08v-14h3.08v14zm15.879 0h-3.36v-8.176c0-.765-.149-1.335-.448-1.708-.28-.392-.635-.653-1.064-.784a3.95 3.95 0 0 0-1.204-.196c-.373 0-.812.065-1.316.196-.485.131-.915.392-1.288.784-.373.373-.56.943-.56 1.708v8.176h-3.36v-14h3.36v1.008c.317-.429.812-.728 1.484-.896.672-.187 1.316-.28 1.932-.28 1.195 0 2.221.252 3.08.756.877.504 1.549 1.204 2.016 2.1.485.896.728 1.941.728 3.136v8.176z" fill="#231d4f"/></svg>